<svg width="137" height="44" viewBox="0 0 137 44" fill="none" xmlns="http://www.w3.org/2000/svg">
<g clip-path="url(#clip0)">
<path d="M37.7578 40.0107L35.5248 14.7107C35.3571 12.8049 33.7868 11.3667 31.8728 11.3667C31.4331 11.3667 31.0753 11.7242 31.0753 12.1642V16.1086C31.0753 16.4991 30.7802 16.8401 30.3906 16.8648C29.9634 16.8923 29.6087 16.5541 29.6087 16.1333V7.60832C29.6087 3.41273 26.1959 -1.52588e-05 22.0003 -1.52588e-05C17.8047 -1.52588e-05 14.392 3.41273 14.392 7.60832V11.3667H12.1278C10.2138 11.3667 8.64358 12.8049 8.47583 14.7107L6.24283 40.0107C6.05491 42.1488 7.74094 44 9.89575 44H34.1049C36.26 44 37.9457 42.1485 37.7578 40.0107ZM17.7837 39.1417H12.467C12.062 39.1417 11.7337 38.8133 11.7337 38.4083C11.7337 38.0033 12.062 37.675 12.467 37.675H17.7837C18.1886 37.675 18.517 38.0033 18.517 38.4083C18.517 38.8133 18.1886 39.1417 17.7837 39.1417ZM17.7837 35.475H12.467C12.062 35.475 11.7337 35.1466 11.7337 34.7417C11.7337 34.3367 12.062 34.0083 12.467 34.0083H17.7837C18.1886 34.0083 18.517 34.3367 18.517 34.7417C18.517 35.1466 18.1886 35.475 17.7837 35.475ZM28.142 11.3667H18.1228C17.6828 11.3667 17.3253 11.7242 17.3253 12.1642V16.1086C17.3253 16.4991 17.0302 16.8401 16.6406 16.8648C16.2134 16.8923 15.8587 16.5541 15.8587 16.1333V7.60832C15.8587 4.22215 18.6142 1.46665 22.0003 1.46665C25.3865 1.46665 28.142 4.22215 28.142 7.60832V11.3667Z" fill="#32C33B"/>
</g>
<path d="M53.872 33.288C57.904 33.288 60.28 31.2 60.28 28.056C60.28 25.008 57.928 23.952 54.376 23.16C51.832 22.584 50.848 22.2 50.848 21C50.848 20.016 51.76 19.224 53.272 19.224C54.856 19.224 56.512 19.872 57.976 21.048L59.824 18.504C58.144 17.064 56.056 16.224 53.368 16.224C49.768 16.224 47.272 18.312 47.272 21.36C47.272 24.552 49.744 25.536 53.224 26.328C55.744 26.904 56.704 27.264 56.704 28.44C56.704 29.472 55.792 30.288 54.016 30.288C51.928 30.288 50.152 29.472 48.592 28.128L46.552 30.552C48.472 32.328 51.016 33.288 53.872 33.288ZM69.8995 20.304C68.3155 20.304 66.9475 21.024 66.1795 22.104V16.224H62.6755V33H66.1795V25.656C66.1795 24.312 67.3075 23.256 68.7715 23.256C70.1635 23.256 71.1235 24.312 71.1235 25.848V33H74.5075V25.104C74.5075 22.296 72.5875 20.304 69.8995 20.304ZM83.5617 33.288C87.2337 33.288 90.3057 30.312 90.3057 26.784C90.3057 23.256 87.2337 20.304 83.5617 20.304C79.8657 20.304 76.7697 23.256 76.7697 26.784C76.7697 30.312 79.8657 33.288 83.5617 33.288ZM83.5617 30.336C81.6897 30.336 80.1297 28.704 80.1297 26.784C80.1297 24.864 81.6897 23.256 83.5617 23.256C85.4097 23.256 86.9697 24.864 86.9697 26.784C86.9697 28.704 85.4097 30.336 83.5617 30.336ZM100.333 20.304C98.6046 20.304 97.1646 21.048 96.1806 22.32V20.592H92.6766V37.128H96.1806V31.248C97.1646 32.544 98.6046 33.288 100.333 33.288C103.645 33.288 106.045 30.6 106.045 26.784C106.045 22.992 103.645 20.304 100.333 20.304ZM99.3246 30.336C97.6206 30.336 96.3726 29.088 96.1806 27.264V26.304C96.3726 24.504 97.6206 23.256 99.3246 23.256C101.269 23.256 102.637 24.72 102.637 26.784C102.637 28.872 101.269 30.336 99.3246 30.336ZM110.512 33.288C111.688 33.288 112.648 32.28 112.648 31.056C112.648 29.928 111.688 28.92 110.512 28.92C109.264 28.92 108.28 29.928 108.28 31.056C108.28 32.28 109.264 33.288 110.512 33.288ZM117.233 18.888C118.265 18.888 119.105 18.024 119.105 16.968C119.105 15.984 118.265 15.096 117.233 15.096C116.153 15.096 115.313 15.984 115.313 16.968C115.313 18.024 116.153 18.888 117.233 18.888ZM115.457 33H118.961V20.592H115.457V33ZM131.284 16.224V22.368C130.3 21.072 128.86 20.304 127.108 20.304C123.796 20.304 121.396 22.992 121.396 26.784C121.396 30.6 123.796 33.288 127.108 33.288C128.86 33.288 130.3 32.52 131.284 31.224V33H134.788V16.224H131.284ZM128.116 30.336C126.172 30.336 124.804 28.872 124.804 26.784C124.804 24.72 126.172 23.256 128.116 23.256C129.964 23.256 131.284 24.72 131.284 26.784C131.284 28.872 129.964 30.336 128.116 30.336Z" fill="#32C33B"/>
<defs>
<clipPath id="clip0">
<rect width="44" height="44" fill="white"/>
</clipPath>
</defs>
</svg>
