<svg width="140" height="21" viewBox="0 0 140 21" fill="none" xmlns="http://www.w3.org/2000/svg">
<path d="M2.06022 8.72C0.876219 8.208 0.284219 7.712 0.284219 7.232C0.284219 6.976 0.388219 6.856 0.596219 6.872C0.884219 6.872 1.21222 6.944 1.58022 7.088C1.94822 7.216 2.32422 7.32 2.70822 7.4C4.02022 4.92 5.50822 3.296 7.17222 2.528C7.73222 2.272 8.29222 2.136 8.85222 2.12C9.95622 2.12 10.7962 2.392 11.3722 2.936C11.9642 3.464 12.2602 4.112 12.2602 4.88C12.2602 6.256 11.5162 7.32 10.0282 8.072C8.81222 8.68 7.15622 9.056 5.06022 9.2C4.30822 11.056 3.93222 13.048 3.93222 15.176C3.93222 16.76 4.30022 17.68 5.03622 17.936C5.54822 18.112 5.93222 18.12 6.18822 17.96C6.44422 17.784 6.64422 17.56 6.78822 17.288C6.93222 17 7.00422 16.584 7.00422 16.04C7.02022 15.496 6.86822 15.04 6.54822 14.672C6.24422 14.288 5.94822 13.936 5.66022 13.616C5.80422 13.088 6.01222 12.648 6.28422 12.296C6.79622 11.608 7.23622 11.264 7.60422 11.264C7.97222 11.264 8.26822 11.392 8.49222 11.648C8.73222 11.904 8.92422 12.224 9.06822 12.608C9.21222 12.992 9.32422 13.408 9.40422 13.856C9.50022 14.304 9.60422 14.72 9.71622 15.104C9.82822 15.488 9.96422 15.808 10.1242 16.064C10.3002 16.32 10.5242 16.448 10.7962 16.448C11.0842 16.448 11.3402 16.344 11.5642 16.136C11.7882 15.912 11.9882 15.672 12.1642 15.416C12.3402 15.16 12.5002 14.928 12.6442 14.72C12.7882 14.496 12.9322 14.384 13.0762 14.384C13.2362 14.384 13.3882 14.512 13.5322 14.768C13.6922 15.024 13.7722 15.264 13.7722 15.488C13.7722 16 13.5162 16.608 13.0042 17.312C12.5082 18.016 11.8682 18.368 11.0842 18.368C10.3002 18.352 9.69222 18.184 9.26022 17.864C8.98822 18.536 8.52422 19.096 7.86822 19.544C7.21222 19.992 6.27622 20.216 5.06022 20.216C3.86022 20.216 2.82822 19.904 1.96422 19.28C0.924219 18.528 0.404219 17.36 0.404219 15.776C0.404219 13.52 0.956219 11.168 2.06022 8.72ZM9.62022 5.312C9.60422 4.752 9.39622 4.472 8.99622 4.472C8.61222 4.472 8.10822 4.768 7.48422 5.36C6.86022 5.952 6.26022 6.776 5.68422 7.832C7.42822 7.528 8.62022 6.992 9.26022 6.224C9.48422 5.936 9.60422 5.632 9.62022 5.312ZM18.0347 17.384C19.2827 17.384 20.4907 16.888 21.6587 15.896C22.0907 15.528 22.4427 15.192 22.7147 14.888C22.9867 14.568 23.1947 14.408 23.3387 14.408C23.5627 14.408 23.6747 14.632 23.6747 15.08C23.6747 15.528 23.5547 16.032 23.3147 16.592C23.0747 17.136 22.6747 17.672 22.1147 18.2C20.7387 19.496 18.8507 20.144 16.4507 20.144C14.5467 20.144 13.2507 19.456 12.5627 18.08C12.3227 17.6 12.2027 16.912 12.2027 16.016C12.2027 15.12 12.3787 14.192 12.7307 13.232C13.0827 12.256 13.5467 11.416 14.1227 10.712C14.7147 10.008 15.3947 9.464 16.1627 9.08C16.9307 8.68 17.7467 8.48 18.6107 8.48C19.4907 8.48 20.1627 8.696 20.6267 9.128C21.1067 9.56 21.3467 10.12 21.3467 10.808C21.3467 11.496 21.1707 12.064 20.8187 12.512C20.4827 12.944 20.0427 13.312 19.4987 13.616C18.9547 13.904 18.3467 14.168 17.6747 14.408C17.0187 14.632 16.3707 14.888 15.7307 15.176V15.776C15.7467 16.352 15.9867 16.76 16.4507 17C16.9147 17.24 17.4427 17.368 18.0347 17.384ZM17.6267 10.616C16.7947 10.616 16.2187 11.584 15.8987 13.52C16.2347 13.296 16.5467 13.096 16.8347 12.92C17.1387 12.744 17.4027 12.576 17.6267 12.416C18.1067 12.064 18.3547 11.664 18.3707 11.216C18.3707 10.816 18.1227 10.616 17.6267 10.616ZM27.8259 20.072C25.5379 20.088 23.9779 19.232 23.1459 17.504C22.8579 16.896 22.7139 16.136 22.7139 15.224C22.7139 14.296 22.7939 13.312 22.9539 12.272C23.2739 10.192 23.8899 8.272 24.8019 6.512C25.2659 5.616 25.7859 4.848 26.3619 4.208C27.6259 2.8 29.0339 2.104 30.5859 2.12C31.2739 2.12 31.8099 2.312 32.1939 2.696C32.5939 3.064 32.7939 3.6 32.7939 4.304C32.7939 5.008 32.5859 5.72 32.1699 6.44C31.7539 7.144 31.2179 7.88 30.5619 8.648C29.9219 9.4 29.2099 10.192 28.4259 11.024C27.6419 11.856 26.8739 12.76 26.1219 13.736V14.696C26.1219 15.592 26.3139 16.248 26.6979 16.664C27.0819 17.08 27.5299 17.288 28.0419 17.288C29.4179 17.288 30.6339 16.608 31.6899 15.248C32.1219 14.688 32.4499 14.408 32.6739 14.408C32.8979 14.408 33.0099 14.68 33.0099 15.224C33.0099 15.768 32.8579 16.328 32.5539 16.904C32.2659 17.464 31.8819 17.984 31.4019 18.464C30.9219 18.928 30.3699 19.312 29.7459 19.616C29.1219 19.92 28.4819 20.072 27.8259 20.072ZM29.1219 7.184C29.4579 6.768 29.7219 6.392 29.9139 6.056C30.1059 5.72 30.2019 5.376 30.2019 5.024C30.2019 4.656 30.0739 4.472 29.8179 4.472C29.2579 4.472 28.6339 5.048 27.9459 6.2C27.2739 7.352 26.7699 8.864 26.4339 10.736C26.9779 9.904 27.4739 9.208 27.9219 8.648C28.3859 8.088 28.7859 7.6 29.1219 7.184ZM34.4711 20.072C32.8711 20.072 32.0711 18.576 32.0711 15.584C32.0711 13.952 32.2711 12.472 32.6711 11.144C33.2951 9.096 33.9991 8.072 34.7831 8.072C35.2471 8.072 35.6151 8.384 35.8871 9.008C36.1111 9.488 36.2151 9.96 36.1991 10.424C36.1991 11.064 36.0071 12.192 35.6231 13.808C35.2551 15.216 35.0711 16.088 35.0711 16.424C35.0711 16.76 35.1511 16.992 35.3111 17.12C35.4871 17.248 35.6871 17.312 35.9111 17.312C36.1511 17.312 36.4471 17.16 36.7991 16.856C37.1511 16.552 37.5031 16.224 37.8551 15.872C38.2071 15.504 38.5271 15.168 38.8151 14.864C39.1191 14.56 39.3271 14.408 39.4391 14.408C39.6631 14.408 39.7751 14.68 39.7751 15.224C39.7751 16.344 39.2071 17.44 38.0711 18.512C36.9511 19.568 35.7511 20.088 34.4711 20.072ZM35.4551 6.128C35.0231 5.488 34.8071 4.8 34.8071 4.064C34.8071 3.328 34.9191 2.72 35.1431 2.24C35.3831 1.744 35.6071 1.384 35.8151 1.16C36.0231 0.92 36.2631 0.8 36.5351 0.8C36.9831 0.8 37.3911 1.136 37.7591 1.808C38.1271 2.464 38.3111 3.016 38.3111 3.464C38.3111 4.296 38.0151 4.952 37.4231 5.432C36.8471 5.896 36.1911 6.128 35.4551 6.128ZM45.5595 18.944C45.5595 19.888 44.6395 20.36 42.7995 20.36C42.3995 20.36 42.1595 20.16 42.0795 19.76C42.0155 19.344 41.9835 18.832 41.9835 18.224C41.9835 17.616 42.0235 16.968 42.1035 16.28C42.1995 15.576 42.3195 14.816 42.4635 14C42.7355 12.432 43.1195 10.744 43.6155 8.936C44.1275 7.112 44.6315 5.704 45.1275 4.712C44.1195 4.776 43.1195 4.96 42.1275 5.264C41.1355 5.552 40.4315 5.76 40.0155 5.888C39.5995 6 39.2555 6.056 38.9835 6.056C38.7115 6.056 38.5755 5.968 38.5755 5.792C38.5755 5.584 38.7355 5.28 39.0555 4.88C39.3755 4.464 39.8315 4.048 40.4235 3.632C41.9275 2.608 43.5995 2.088 45.4395 2.072L53.3355 2.144C53.7675 2.144 53.9835 2.312 53.9835 2.648C53.9835 2.744 53.9195 2.92 53.7915 3.176C53.6635 3.416 53.5515 3.68 53.4555 3.968C53.2475 4.544 52.8075 4.832 52.1355 4.832C51.4795 4.832 49.9035 4.784 47.4075 4.688C47.3435 5.392 47.2155 6.296 47.0235 7.4C46.8315 8.488 46.6235 9.68 46.3995 10.976C45.8555 14.288 45.5755 16.944 45.5595 18.944ZM57.852 9.872C57.852 8.8 58.684 8.264 60.348 8.264C60.764 8.264 61.02 8.4 61.116 8.672C61.228 8.944 61.284 9.36 61.284 9.92C61.284 10.704 61.108 11.92 60.756 13.568C60.404 15.216 60.236 16.328 60.252 16.904C60.252 17.176 60.34 17.312 60.516 17.312C60.756 17.312 61.052 17.16 61.404 16.856C61.756 16.552 62.108 16.224 62.46 15.872C62.812 15.504 63.132 15.168 63.42 14.864C63.724 14.56 63.932 14.408 64.044 14.408C64.268 14.408 64.38 14.68 64.38 15.224C64.38 16.344 63.828 17.424 62.724 18.464C60.868 19.552 59.692 20.096 59.196 20.096C59.148 20.096 59.108 20.088 59.076 20.072C58.468 20.072 58.036 19.872 57.78 19.472C57.54 19.072 57.388 18.568 57.324 17.96C57.004 18.552 56.564 19.064 56.004 19.496C55.444 19.912 54.804 20.12 54.084 20.12C52.82 20.12 51.844 19.88 51.156 19.4C50.484 18.92 50.148 18.208 50.148 17.264C50.148 16.848 50.204 16.464 50.316 16.112C50.444 15.76 50.644 15.328 50.916 14.816L51.612 8.912C52.108 8.528 52.82 8.336 53.748 8.336C54.484 8.336 54.9 8.816 54.996 9.776C55.076 10.56 55.036 11.264 54.876 11.888C54.732 12.496 54.532 13.272 54.276 14.216C54.02 15.144 53.892 15.968 53.892 16.688C53.892 17.264 54.252 17.552 54.972 17.552C55.756 17.552 56.436 16.864 57.012 15.488C57.46 14.432 57.764 13.256 57.924 11.96C57.908 11.832 57.892 11.672 57.876 11.48C57.876 11.272 57.868 11.072 57.852 10.88C57.852 10.688 57.852 10.496 57.852 10.304V9.872ZM70.1928 14.744C70.6248 16.456 71.3528 17.312 72.3768 17.312C72.8728 17.312 73.3208 17.16 73.7208 16.856C74.1208 16.552 74.4808 16.224 74.8008 15.872C75.1208 15.504 75.4008 15.168 75.6408 14.864C75.8808 14.56 76.1048 14.408 76.3128 14.408C76.5208 14.408 76.6248 14.68 76.6248 15.224C76.6248 16.36 76.0968 17.456 75.0408 18.512C73.9848 19.568 72.8008 20.088 71.4888 20.072C70.1928 20.072 69.0328 18.928 68.0088 16.64C67.7208 16 67.4488 15.352 67.1928 14.696L67.0248 17.984C67.0248 18.288 67.0088 18.592 66.9768 18.896C66.9448 19.184 66.8088 19.424 66.5688 19.616C65.9448 20.112 65.3128 20.36 64.6728 20.36C63.9208 20.36 63.5448 19.584 63.5448 18.032C63.5448 15.792 63.8088 13.448 64.3368 11C64.8648 8.552 65.3768 6.712 65.8728 5.48C66.3848 4.232 66.7768 3.4 67.0488 2.984C67.3368 2.568 67.5608 2.312 67.7208 2.216C67.8808 2.12 68.0568 2.072 68.2488 2.072C68.4568 2.072 68.6728 2.176 68.8968 2.384C69.1208 2.576 69.3608 2.88 69.6168 3.296C69.8728 3.696 70.0008 4.096 70.0008 4.496C70.0168 4.88 69.9528 5.264 69.8088 5.648C69.6808 6.016 69.5048 6.384 69.2808 6.752C69.0568 7.104 68.8088 7.472 68.5368 7.856C68.2648 8.224 67.9928 8.624 67.7208 9.056L67.4808 11.072C68.0408 9.904 68.8648 9.12 69.9528 8.72C70.3368 8.576 70.7848 8.504 71.2968 8.504C72.3208 8.504 73.1048 8.752 73.6488 9.248C74.1928 9.728 74.4648 10.44 74.4648 11.384C74.4648 12.328 73.9928 13.128 73.0488 13.784C72.1048 14.44 71.1528 14.76 70.1928 14.744ZM71.1048 11.936C71.1048 11.36 70.7768 11.072 70.1208 11.072C69.4648 11.072 68.7528 11.704 67.9848 12.968C67.7608 13.336 67.5688 13.712 67.4088 14.096C69.0728 14 70.2088 13.552 70.8168 12.752C71.0088 12.496 71.1048 12.224 71.1048 11.936ZM82.8832 9.872C82.8832 8.8 83.7152 8.264 85.3792 8.264C85.7952 8.264 86.0512 8.4 86.1472 8.672C86.2592 8.944 86.3152 9.36 86.3152 9.92C86.3152 10.704 86.1392 11.92 85.7872 13.568C85.4352 15.216 85.2672 16.328 85.2832 16.904C85.2832 17.176 85.3712 17.312 85.5472 17.312C85.7872 17.312 86.0832 17.16 86.4352 16.856C86.7872 16.552 87.1392 16.224 87.4912 15.872C87.8432 15.504 88.1632 15.168 88.4512 14.864C88.7552 14.56 88.9632 14.408 89.0752 14.408C89.2992 14.408 89.4112 14.68 89.4112 15.224C89.4112 16.344 88.8592 17.424 87.7552 18.464C85.8992 19.552 84.7232 20.096 84.2272 20.096C84.1792 20.096 84.1392 20.088 84.1072 20.072C83.4992 20.072 83.0672 19.872 82.8112 19.472C82.5712 19.072 82.4192 18.568 82.3552 17.96C82.0352 18.552 81.5952 19.064 81.0352 19.496C80.4752 19.912 79.8352 20.12 79.1152 20.12C77.8512 20.12 76.8752 19.88 76.1872 19.4C75.5152 18.92 75.1792 18.208 75.1792 17.264C75.1792 16.848 75.2352 16.464 75.3472 16.112C75.4752 15.76 75.6752 15.328 75.9472 14.816L76.6432 8.912C77.1392 8.528 77.8512 8.336 78.7792 8.336C79.5152 8.336 79.9312 8.816 80.0272 9.776C80.1072 10.56 80.0672 11.264 79.9072 11.888C79.7632 12.496 79.5632 13.272 79.3072 14.216C79.0512 15.144 78.9232 15.968 78.9232 16.688C78.9232 17.264 79.2832 17.552 80.0032 17.552C80.7872 17.552 81.4672 16.864 82.0432 15.488C82.4912 14.432 82.7952 13.256 82.9552 11.96C82.9392 11.832 82.9232 11.672 82.9072 11.48C82.9072 11.272 82.8992 11.072 82.8832 10.88C82.8832 10.688 82.8832 10.496 82.8832 10.304V9.872ZM90.1361 19.088C90.4561 18.272 90.9361 17.6 91.5761 17.072C92.2161 16.528 92.9121 16.256 93.6641 16.256C94.4161 16.256 94.7921 16.672 94.7921 17.504C94.7921 18.336 94.5201 19.08 93.9761 19.736C93.4481 20.392 92.9121 20.712 92.3681 20.696C91.4081 20.696 90.6641 20.16 90.1361 19.088ZM107.682 14.336C107.97 14.336 108.114 14.584 108.114 15.08C108.114 15.56 107.986 16.08 107.73 16.64C107.49 17.2 107.114 17.744 106.602 18.272C106.106 18.784 105.466 19.224 104.682 19.592C103.898 19.96 102.97 20.144 101.898 20.144C100.842 20.144 99.9136 19.832 99.1136 19.208C98.3136 18.568 97.9136 17.656 97.9136 16.472C97.9136 15.272 98.0976 14.192 98.4656 13.232C98.8496 12.256 99.3456 11.416 99.9536 10.712C100.578 10.008 101.282 9.464 102.066 9.08C102.85 8.68 103.594 8.48 104.298 8.48C105.53 8.48 106.146 8.968 106.146 9.944C106.146 10.504 106.026 10.952 105.786 11.288C105.562 11.624 105.33 11.792 105.09 11.792C104.77 11.792 104.49 11.68 104.25 11.456C104.01 11.232 103.746 11.12 103.458 11.12C103.17 11.104 102.89 11.24 102.618 11.528C102.362 11.816 102.146 12.184 101.97 12.632C101.618 13.528 101.442 14.576 101.442 15.776C101.458 16.352 101.722 16.784 102.234 17.072C102.586 17.264 103.002 17.368 103.482 17.384C103.962 17.384 104.418 17.224 104.85 16.904C105.298 16.584 105.706 16.24 106.074 15.872C106.442 15.488 106.762 15.136 107.034 14.816C107.322 14.496 107.538 14.336 107.682 14.336ZM116.615 17.96C115.351 19.448 113.831 20.192 112.055 20.192C110.295 20.192 108.975 19.744 108.095 18.848C107.215 17.936 106.783 16.808 106.799 15.464C106.783 13.56 107.383 11.92 108.599 10.544C109.815 9.168 111.407 8.48 113.375 8.48C114.271 8.48 114.991 8.592 115.535 8.816C116.479 9.2 116.951 9.56 116.951 9.896C116.951 10.152 116.287 10.288 114.959 10.304C113.647 10.304 112.543 10.76 111.647 11.672C110.767 12.568 110.327 13.704 110.327 15.08C110.327 15.8 110.535 16.408 110.951 16.904C111.383 17.384 111.983 17.624 112.751 17.624C113.535 17.624 114.183 17.464 114.695 17.144C113.559 16.376 112.991 15.264 112.991 13.808C112.975 13.04 113.247 12.344 113.807 11.72C114.383 11.08 115.111 10.76 115.991 10.76C116.887 10.744 117.527 10.984 117.911 11.48C118.295 11.976 118.487 12.616 118.487 13.4C118.487 14.168 118.303 14.984 117.935 15.848H118.079C118.783 15.832 119.391 15.584 119.903 15.104C120.095 14.912 120.255 14.744 120.383 14.6C120.527 14.456 120.671 14.384 120.815 14.384C121.039 14.384 121.151 14.648 121.151 15.176C121.151 16.152 120.863 16.888 120.287 17.384C119.711 17.864 119.071 18.104 118.367 18.104C117.679 18.104 117.095 18.056 116.615 17.96ZM116.399 15.176C116.671 14.6 116.807 14.04 116.807 13.496C116.807 12.952 116.631 12.68 116.279 12.68C116.135 12.68 116.015 12.784 115.919 12.992C115.823 13.2 115.775 13.4 115.775 13.592C115.775 14.232 115.983 14.76 116.399 15.176ZM133.102 12.704C133.102 12.176 132.798 11.912 132.19 11.912C131.774 11.912 131.31 12.32 130.798 13.136C130.286 13.936 129.918 14.8 129.694 15.728V15.776C129.694 16.32 129.774 16.88 129.934 17.456C130.11 18.032 130.198 18.432 130.198 18.656C130.198 19.2 129.518 19.736 128.158 20.264C127.95 20.344 127.766 20.384 127.606 20.384C127.206 20.384 126.926 20.176 126.766 19.76C126.622 19.344 126.55 18.784 126.55 18.08C126.55 17.36 126.566 16.688 126.598 16.064C126.646 15.424 126.686 14.84 126.718 14.312C126.766 13.768 126.806 13.296 126.838 12.896C126.886 12.48 126.91 12.144 126.91 11.888C126.91 11.344 126.662 11.072 126.166 11.072C125.67 11.072 125.094 11.656 124.438 12.824C123.782 13.976 123.454 14.896 123.454 15.584C123.454 16.256 123.534 16.88 123.694 17.456C123.87 18.032 123.958 18.432 123.958 18.656C123.958 19.2 123.278 19.736 121.918 20.264C121.71 20.344 121.526 20.384 121.366 20.384C120.966 20.384 120.686 20.176 120.526 19.76C120.382 19.344 120.31 18.704 120.31 17.84C120.31 15.568 120.398 13.928 120.574 12.92C120.814 11.432 121.358 10.024 122.206 8.696C122.494 8.248 122.806 8.024 123.142 8.024C123.67 8.024 124.158 8.456 124.606 9.32C124.734 9.544 124.83 9.752 124.894 9.944C125.662 8.984 126.566 8.504 127.606 8.504C128.294 8.504 128.91 8.736 129.454 9.2C129.998 9.648 130.27 10.216 130.27 10.904V11.168C131.246 9.952 132.438 9.344 133.846 9.344C134.71 9.344 135.366 9.568 135.814 10.016C136.262 10.464 136.486 11.016 136.486 11.672C136.486 12.328 136.438 12.92 136.342 13.448C136.246 13.976 136.134 14.472 136.006 14.936C135.894 15.4 135.79 15.816 135.694 16.184C135.598 16.536 135.55 16.816 135.55 17.024C135.55 17.216 135.614 17.312 135.742 17.312C135.982 17.312 136.278 17.16 136.63 16.856C136.982 16.552 137.334 16.224 137.686 15.872C138.038 15.504 138.358 15.168 138.646 14.864C138.95 14.56 139.158 14.408 139.27 14.408C139.494 14.408 139.606 14.68 139.606 15.224C139.606 16.344 139.038 17.432 137.902 18.488C136.782 19.544 135.582 20.072 134.302 20.072C133.15 20.072 132.574 19.024 132.574 16.928C132.574 16.4 132.662 15.672 132.838 14.744C133.014 13.816 133.102 13.136 133.102 12.704Z" fill="#32C33B"/>
</svg>
