<svg width="163" height="24" viewBox="0 0 163 24" fill="none" xmlns="http://www.w3.org/2000/svg">
<path d="M2.48692 9.84C1.10559 9.24267 0.414922 8.664 0.414922 8.104C0.414922 7.80533 0.536255 7.66533 0.778922 7.684C1.11492 7.684 1.49759 7.768 1.92692 7.936C2.35626 8.08533 2.79492 8.20667 3.24292 8.3C4.77359 5.40667 6.50959 3.512 8.45092 2.616C9.10426 2.31733 9.75759 2.15867 10.4109 2.14C11.6989 2.14 12.6789 2.45733 13.3509 3.092C14.0416 3.708 14.3869 4.464 14.3869 5.36C14.3869 6.96533 13.5189 8.20667 11.7829 9.084C10.3643 9.79333 8.43226 10.232 5.98692 10.4C5.10959 12.5653 4.67092 14.8893 4.67092 17.372C4.67092 19.22 5.10026 20.2933 5.95892 20.592C6.55626 20.7973 7.00426 20.8067 7.30292 20.62C7.60159 20.4147 7.83492 20.1533 8.00292 19.836C8.17092 19.5 8.25492 19.0147 8.25492 18.38C8.27359 17.7453 8.09626 17.2133 7.72292 16.784C7.36826 16.336 7.02292 15.9253 6.68692 15.552C6.85492 14.936 7.09759 14.4227 7.41492 14.012C8.01226 13.2093 8.52559 12.808 8.95492 12.808C9.38426 12.808 9.72959 12.9573 9.99092 13.256C10.2709 13.5547 10.4949 13.928 10.6629 14.376C10.8309 14.824 10.9616 15.3093 11.0549 15.832C11.1669 16.3547 11.2883 16.84 11.4189 17.288C11.5496 17.736 11.7083 18.1093 11.8949 18.408C12.1003 18.7067 12.3616 18.856 12.6789 18.856C13.0149 18.856 13.3136 18.7347 13.5749 18.492C13.8363 18.2307 14.0696 17.9507 14.2749 17.652C14.4803 17.3533 14.6669 17.0827 14.8349 16.84C15.0029 16.5787 15.1709 16.448 15.3389 16.448C15.5256 16.448 15.7029 16.5973 15.8709 16.896C16.0576 17.1947 16.1509 17.4747 16.1509 17.736C16.1509 18.3333 15.8523 19.0427 15.2549 19.864C14.6763 20.6853 13.9296 21.096 13.0149 21.096C12.1003 21.0773 11.3909 20.8813 10.8869 20.508C10.5696 21.292 10.0283 21.9453 9.26292 22.468C8.49759 22.9907 7.40559 23.252 5.98692 23.252C4.58692 23.252 3.38292 22.888 2.37492 22.16C1.16159 21.2827 0.554922 19.92 0.554922 18.072C0.554922 15.44 1.19892 12.696 2.48692 9.84ZM11.3069 5.864C11.2883 5.21067 11.0456 4.884 10.5789 4.884C10.1309 4.884 9.54292 5.22933 8.81492 5.92C8.08692 6.61067 7.38692 7.572 6.71492 8.804C8.74959 8.44933 10.1403 7.824 10.8869 6.928C11.1483 6.592 11.2883 6.23733 11.3069 5.864ZM21.1238 19.948C22.5798 19.948 23.9891 19.3693 25.3518 18.212C25.8558 17.7827 26.2664 17.3907 26.5838 17.036C26.9011 16.6627 27.1438 16.476 27.3118 16.476C27.5731 16.476 27.7038 16.7373 27.7038 17.26C27.7038 17.7827 27.5638 18.3707 27.2838 19.024C27.0038 19.6587 26.5371 20.284 25.8838 20.9C24.2784 22.412 22.0758 23.168 19.2758 23.168C17.0544 23.168 15.5424 22.3653 14.7398 20.76C14.4598 20.2 14.3198 19.3973 14.3198 18.352C14.3198 17.3067 14.5251 16.224 14.9358 15.104C15.3464 13.9653 15.8878 12.9853 16.5598 12.164C17.2504 11.3427 18.0438 10.708 18.9398 10.26C19.8358 9.79333 20.7878 9.56 21.7958 9.56C22.8224 9.56 23.6064 9.812 24.1478 10.316C24.7078 10.82 24.9878 11.4733 24.9878 12.276C24.9878 13.0787 24.7824 13.7413 24.3718 14.264C23.9798 14.768 23.4664 15.1973 22.8318 15.552C22.1971 15.888 21.4878 16.196 20.7038 16.476C19.9384 16.7373 19.1824 17.036 18.4358 17.372V18.072C18.4544 18.744 18.7344 19.22 19.2758 19.5C19.8171 19.78 20.4331 19.9293 21.1238 19.948ZM20.6478 12.052C19.6771 12.052 19.0051 13.1813 18.6318 15.44C19.0238 15.1787 19.3878 14.9453 19.7238 14.74C20.0784 14.5347 20.3864 14.3387 20.6478 14.152C21.2078 13.7413 21.4971 13.2747 21.5158 12.752C21.5158 12.2853 21.2264 12.052 20.6478 12.052ZM32.5469 23.084C29.8776 23.1027 28.0576 22.104 27.0869 20.088C26.7509 19.3787 26.5829 18.492 26.5829 17.428C26.5829 16.3453 26.6762 15.1973 26.8629 13.984C27.2362 11.5573 27.9549 9.31733 29.0189 7.264C29.5602 6.21867 30.1669 5.32267 30.8389 4.576C32.3136 2.93333 33.9562 2.12133 35.7669 2.14C36.5696 2.14 37.1949 2.364 37.6429 2.812C38.1096 3.24133 38.3429 3.86667 38.3429 4.688C38.3429 5.50933 38.1002 6.34 37.6149 7.18C37.1296 8.00133 36.5042 8.86 35.7389 9.756C34.9922 10.6333 34.1616 11.5573 33.2469 12.528C32.3322 13.4987 31.4362 14.5533 30.5589 15.692V16.812C30.5589 17.8573 30.7829 18.6227 31.2309 19.108C31.6789 19.5933 32.2016 19.836 32.7989 19.836C34.4042 19.836 35.8229 19.0427 37.0549 17.456C37.5589 16.8027 37.9416 16.476 38.2029 16.476C38.4642 16.476 38.5949 16.7933 38.5949 17.428C38.5949 18.0627 38.4176 18.716 38.0629 19.388C37.7269 20.0413 37.2789 20.648 36.7189 21.208C36.1589 21.7493 35.5149 22.1973 34.7869 22.552C34.0589 22.9067 33.3122 23.084 32.5469 23.084ZM34.0589 8.048C34.4509 7.56267 34.7589 7.124 34.9829 6.732C35.2069 6.34 35.3189 5.93867 35.3189 5.528C35.3189 5.09867 35.1696 4.884 34.8709 4.884C34.2176 4.884 33.4896 5.556 32.6869 6.9C31.9029 8.244 31.3149 10.008 30.9229 12.192C31.5576 11.2213 32.1362 10.4093 32.6589 9.756C33.2002 9.10267 33.6669 8.53333 34.0589 8.048ZM40.2996 23.084C38.4329 23.084 37.4996 21.3387 37.4996 17.848C37.4996 15.944 37.7329 14.2173 38.1996 12.668C38.9276 10.2787 39.7489 9.084 40.6636 9.084C41.2049 9.084 41.6343 9.448 41.9516 10.176C42.2129 10.736 42.3343 11.2867 42.3156 11.828C42.3156 12.5747 42.0916 13.8907 41.6436 15.776C41.2143 17.4187 40.9996 18.436 40.9996 18.828C40.9996 19.22 41.0929 19.4907 41.2796 19.64C41.4849 19.7893 41.7183 19.864 41.9796 19.864C42.2596 19.864 42.6049 19.6867 43.0156 19.332C43.4263 18.9773 43.8369 18.5947 44.2476 18.184C44.6583 17.7547 45.0316 17.3627 45.3676 17.008C45.7223 16.6533 45.9649 16.476 46.0956 16.476C46.3569 16.476 46.4876 16.7933 46.4876 17.428C46.4876 18.7347 45.8249 20.0133 44.4996 21.264C43.1929 22.496 41.7929 23.1027 40.2996 23.084ZM41.4476 6.816C40.9436 6.06933 40.6916 5.26667 40.6916 4.408C40.6916 3.54933 40.8223 2.84 41.0836 2.28C41.3636 1.70133 41.6249 1.28133 41.8676 1.02C42.1103 0.74 42.3903 0.6 42.7076 0.6C43.2303 0.6 43.7063 0.992 44.1356 1.776C44.5649 2.54133 44.7796 3.18533 44.7796 3.708C44.7796 4.67867 44.4343 5.444 43.7436 6.004C43.0716 6.54533 42.3063 6.816 41.4476 6.816ZM53.236 21.768C53.236 22.8693 52.1627 23.42 50.016 23.42C49.5494 23.42 49.2694 23.1867 49.176 22.72C49.1014 22.2347 49.064 21.6373 49.064 20.928C49.064 20.2187 49.1107 19.4627 49.204 18.66C49.316 17.8387 49.456 16.952 49.624 16C49.9414 14.1707 50.3894 12.2013 50.968 10.092C51.5654 7.964 52.1534 6.32133 52.732 5.164C51.556 5.23867 50.3894 5.45333 49.232 5.808C48.0747 6.144 47.2534 6.38667 46.768 6.536C46.2827 6.66667 45.8814 6.732 45.564 6.732C45.2467 6.732 45.088 6.62933 45.088 6.424C45.088 6.18133 45.2747 5.82667 45.648 5.36C46.0214 4.87467 46.5534 4.38933 47.244 3.904C48.9987 2.70933 50.9494 2.10267 53.096 2.084L62.308 2.168C62.812 2.168 63.064 2.364 63.064 2.756C63.064 2.868 62.9894 3.07333 62.84 3.372C62.6907 3.652 62.56 3.96 62.448 4.296C62.2054 4.968 61.692 5.304 60.908 5.304C60.1427 5.304 58.304 5.248 55.392 5.136C55.3174 5.95733 55.168 7.012 54.944 8.3C54.72 9.56933 54.4774 10.96 54.216 12.472C53.5814 16.336 53.2547 19.4347 53.236 21.768ZM67.5773 11.184C67.5773 9.93333 68.548 9.308 70.4893 9.308C70.9746 9.308 71.2733 9.46667 71.3853 9.784C71.516 10.1013 71.5813 10.5867 71.5813 11.24C71.5813 12.1547 71.376 13.5733 70.9653 15.496C70.5546 17.4187 70.3586 18.716 70.3773 19.388C70.3773 19.7053 70.48 19.864 70.6853 19.864C70.9653 19.864 71.3106 19.6867 71.7213 19.332C72.132 18.9773 72.5426 18.5947 72.9533 18.184C73.364 17.7547 73.7373 17.3627 74.0733 17.008C74.428 16.6533 74.6706 16.476 74.8013 16.476C75.0626 16.476 75.1933 16.7933 75.1933 17.428C75.1933 18.7347 74.5493 19.9947 73.2613 21.208C71.096 22.4773 69.724 23.112 69.1453 23.112C69.0893 23.112 69.0426 23.1027 69.0053 23.084C68.296 23.084 67.792 22.8507 67.4933 22.384C67.2133 21.9173 67.036 21.3293 66.9613 20.62C66.588 21.3107 66.0746 21.908 65.4213 22.412C64.768 22.8973 64.0213 23.14 63.1813 23.14C61.7066 23.14 60.568 22.86 59.7653 22.3C58.9813 21.74 58.5893 20.9093 58.5893 19.808C58.5893 19.3227 58.6546 18.8747 58.7853 18.464C58.9346 18.0533 59.168 17.5493 59.4853 16.952L60.2973 10.064C60.876 9.616 61.7066 9.392 62.7893 9.392C63.648 9.392 64.1333 9.952 64.2453 11.072C64.3386 11.9867 64.292 12.808 64.1053 13.536C63.9373 14.2453 63.704 15.1507 63.4053 16.252C63.1066 17.3347 62.9573 18.296 62.9573 19.136C62.9573 19.808 63.3773 20.144 64.2173 20.144C65.132 20.144 65.9253 19.3413 66.5973 17.736C67.12 16.504 67.4746 15.132 67.6613 13.62C67.6426 13.4707 67.624 13.284 67.6053 13.06C67.6053 12.8173 67.596 12.584 67.5773 12.36C67.5773 12.136 67.5773 11.912 67.5773 11.688V11.184ZM81.975 16.868C82.479 18.8653 83.3283 19.864 84.523 19.864C85.1017 19.864 85.6243 19.6867 86.091 19.332C86.5577 18.9773 86.9777 18.5947 87.351 18.184C87.7243 17.7547 88.051 17.3627 88.331 17.008C88.611 16.6533 88.8723 16.476 89.115 16.476C89.3577 16.476 89.479 16.7933 89.479 17.428C89.479 18.7533 88.863 20.032 87.631 21.264C86.399 22.496 85.0177 23.1027 83.487 23.084C81.975 23.084 80.6217 21.7493 79.427 19.08C79.091 18.3333 78.7737 17.5773 78.475 16.812L78.279 20.648C78.279 21.0027 78.2603 21.3573 78.223 21.712C78.1857 22.048 78.027 22.328 77.747 22.552C77.019 23.1307 76.2817 23.42 75.535 23.42C74.6577 23.42 74.219 22.5147 74.219 20.704C74.219 18.0907 74.527 15.356 75.143 12.5C75.759 9.644 76.3563 7.49733 76.935 6.06C77.5323 4.604 77.9897 3.63333 78.307 3.148C78.643 2.66267 78.9043 2.364 79.091 2.252C79.2777 2.14 79.483 2.084 79.707 2.084C79.9497 2.084 80.2017 2.20533 80.463 2.448C80.7243 2.672 81.0043 3.02667 81.303 3.512C81.6017 3.97867 81.751 4.44533 81.751 4.912C81.7697 5.36 81.695 5.808 81.527 6.256C81.3777 6.68533 81.1723 7.11467 80.911 7.544C80.6497 7.95467 80.3603 8.384 80.043 8.832C79.7257 9.26133 79.4083 9.728 79.091 10.232L78.811 12.584C79.4643 11.2213 80.4257 10.3067 81.695 9.84C82.143 9.672 82.6657 9.588 83.263 9.588C84.4577 9.588 85.3723 9.87733 86.007 10.456C86.6417 11.016 86.959 11.8467 86.959 12.948C86.959 14.0493 86.4083 14.9827 85.307 15.748C84.2057 16.5133 83.095 16.8867 81.975 16.868ZM83.039 13.592C83.039 12.92 82.6563 12.584 81.891 12.584C81.1257 12.584 80.295 13.3213 79.399 14.796C79.1377 15.2253 78.9137 15.664 78.727 16.112C80.6683 16 81.9937 15.4773 82.703 14.544C82.927 14.2453 83.039 13.928 83.039 13.592ZM96.7804 11.184C96.7804 9.93333 97.7511 9.308 99.6924 9.308C100.178 9.308 100.476 9.46667 100.588 9.784C100.719 10.1013 100.784 10.5867 100.784 11.24C100.784 12.1547 100.579 13.5733 100.168 15.496C99.7578 17.4187 99.5618 18.716 99.5804 19.388C99.5804 19.7053 99.6831 19.864 99.8884 19.864C100.168 19.864 100.514 19.6867 100.924 19.332C101.335 18.9773 101.746 18.5947 102.156 18.184C102.567 17.7547 102.94 17.3627 103.276 17.008C103.631 16.6533 103.874 16.476 104.004 16.476C104.266 16.476 104.396 16.7933 104.396 17.428C104.396 18.7347 103.752 19.9947 102.464 21.208C100.299 22.4773 98.9271 23.112 98.3484 23.112C98.2924 23.112 98.2458 23.1027 98.2084 23.084C97.4991 23.084 96.9951 22.8507 96.6964 22.384C96.4164 21.9173 96.2391 21.3293 96.1644 20.62C95.7911 21.3107 95.2778 21.908 94.6244 22.412C93.9711 22.8973 93.2244 23.14 92.3844 23.14C90.9098 23.14 89.7711 22.86 88.9684 22.3C88.1844 21.74 87.7924 20.9093 87.7924 19.808C87.7924 19.3227 87.8578 18.8747 87.9884 18.464C88.1378 18.0533 88.3711 17.5493 88.6884 16.952L89.5004 10.064C90.0791 9.616 90.9098 9.392 91.9924 9.392C92.8511 9.392 93.3364 9.952 93.4484 11.072C93.5418 11.9867 93.4951 12.808 93.3084 13.536C93.1404 14.2453 92.9071 15.1507 92.6084 16.252C92.3098 17.3347 92.1604 18.296 92.1604 19.136C92.1604 19.808 92.5804 20.144 93.4204 20.144C94.3351 20.144 95.1284 19.3413 95.8004 17.736C96.3231 16.504 96.6778 15.132 96.8644 13.62C96.8458 13.4707 96.8271 13.284 96.8084 13.06C96.8084 12.8173 96.7991 12.584 96.7804 12.36C96.7804 12.136 96.7804 11.912 96.7804 11.688V11.184ZM105.242 21.936C105.615 20.984 106.175 20.2 106.922 19.584C107.669 18.9493 108.481 18.632 109.358 18.632C110.235 18.632 110.674 19.1173 110.674 20.088C110.674 21.0587 110.357 21.9267 109.722 22.692C109.106 23.4573 108.481 23.8307 107.846 23.812C106.726 23.812 105.858 23.1867 105.242 21.936ZM125.712 16.392C126.048 16.392 126.216 16.6813 126.216 17.26C126.216 17.82 126.067 18.4267 125.768 19.08C125.488 19.7333 125.049 20.368 124.452 20.984C123.873 21.5813 123.127 22.0947 122.212 22.524C121.297 22.9533 120.215 23.168 118.964 23.168C117.732 23.168 116.649 22.804 115.716 22.076C114.783 21.3293 114.316 20.2653 114.316 18.884C114.316 17.484 114.531 16.224 114.96 15.104C115.408 13.9653 115.987 12.9853 116.696 12.164C117.424 11.3427 118.245 10.708 119.16 10.26C120.075 9.79333 120.943 9.56 121.764 9.56C123.201 9.56 123.92 10.1293 123.92 11.268C123.92 11.9213 123.78 12.444 123.5 12.836C123.239 13.228 122.968 13.424 122.688 13.424C122.315 13.424 121.988 13.2933 121.708 13.032C121.428 12.7707 121.12 12.64 120.784 12.64C120.448 12.6213 120.121 12.78 119.804 13.116C119.505 13.452 119.253 13.8813 119.048 14.404C118.637 15.4493 118.432 16.672 118.432 18.072C118.451 18.744 118.759 19.248 119.356 19.584C119.767 19.808 120.252 19.9293 120.812 19.948C121.372 19.948 121.904 19.7613 122.408 19.388C122.931 19.0147 123.407 18.6133 123.836 18.184C124.265 17.736 124.639 17.3253 124.956 16.952C125.292 16.5787 125.544 16.392 125.712 16.392ZM136.134 20.62C134.66 22.356 132.886 23.224 130.814 23.224C128.761 23.224 127.221 22.7013 126.194 21.656C125.168 20.592 124.664 19.276 124.682 17.708C124.664 15.4867 125.364 13.5733 126.782 11.968C128.201 10.3627 130.058 9.56 132.354 9.56C133.4 9.56 134.24 9.69067 134.874 9.952C135.976 10.4 136.526 10.82 136.526 11.212C136.526 11.5107 135.752 11.6693 134.202 11.688C132.672 11.688 131.384 12.22 130.338 13.284C129.312 14.3293 128.798 15.6547 128.798 17.26C128.798 18.1 129.041 18.8093 129.526 19.388C130.03 19.948 130.73 20.228 131.626 20.228C132.541 20.228 133.297 20.0413 133.894 19.668C132.569 18.772 131.906 17.4747 131.906 15.776C131.888 14.88 132.205 14.068 132.858 13.34C133.53 12.5933 134.38 12.22 135.406 12.22C136.452 12.2013 137.198 12.4813 137.646 13.06C138.094 13.6387 138.318 14.3853 138.318 15.3C138.318 16.196 138.104 17.148 137.674 18.156H137.842C138.664 18.1373 139.373 17.848 139.97 17.288C140.194 17.064 140.381 16.868 140.53 16.7C140.698 16.532 140.866 16.448 141.034 16.448C141.296 16.448 141.426 16.756 141.426 17.372C141.426 18.5107 141.09 19.3693 140.418 19.948C139.746 20.508 139 20.788 138.178 20.788C137.376 20.788 136.694 20.732 136.134 20.62ZM135.882 17.372C136.2 16.7 136.358 16.0467 136.358 15.412C136.358 14.7773 136.153 14.46 135.742 14.46C135.574 14.46 135.434 14.5813 135.322 14.824C135.21 15.0667 135.154 15.3 135.154 15.524C135.154 16.2707 135.397 16.8867 135.882 17.372ZM155.37 14.488C155.37 13.872 155.015 13.564 154.306 13.564C153.82 13.564 153.279 14.04 152.682 14.992C152.084 15.9253 151.655 16.9333 151.394 18.016V18.072C151.394 18.7067 151.487 19.36 151.674 20.032C151.879 20.704 151.982 21.1707 151.982 21.432C151.982 22.0667 151.188 22.692 149.602 23.308C149.359 23.4013 149.144 23.448 148.958 23.448C148.491 23.448 148.164 23.2053 147.978 22.72C147.81 22.2347 147.726 21.5813 147.726 20.76C147.726 19.92 147.744 19.136 147.782 18.408C147.838 17.6613 147.884 16.98 147.922 16.364C147.978 15.7293 148.024 15.1787 148.062 14.712C148.118 14.2267 148.146 13.8347 148.146 13.536C148.146 12.9013 147.856 12.584 147.278 12.584C146.699 12.584 146.027 13.2653 145.262 14.628C144.496 15.972 144.114 17.0453 144.114 17.848C144.114 18.632 144.207 19.36 144.394 20.032C144.599 20.704 144.702 21.1707 144.702 21.432C144.702 22.0667 143.908 22.692 142.322 23.308C142.079 23.4013 141.864 23.448 141.678 23.448C141.211 23.448 140.884 23.2053 140.698 22.72C140.53 22.2347 140.446 21.488 140.446 20.48C140.446 17.8293 140.548 15.916 140.754 14.74C141.034 13.004 141.668 11.3613 142.658 9.812C142.994 9.28933 143.358 9.028 143.75 9.028C144.366 9.028 144.935 9.532 145.458 10.54C145.607 10.8013 145.719 11.044 145.794 11.268C146.69 10.148 147.744 9.588 148.958 9.588C149.76 9.588 150.479 9.85867 151.114 10.4C151.748 10.9227 152.066 11.5853 152.066 12.388V12.696C153.204 11.2773 154.595 10.568 156.238 10.568C157.246 10.568 158.011 10.8293 158.534 11.352C159.056 11.8747 159.318 12.5187 159.318 13.284C159.318 14.0493 159.262 14.74 159.15 15.356C159.038 15.972 158.907 16.5507 158.758 17.092C158.627 17.6333 158.506 18.1187 158.394 18.548C158.282 18.9587 158.226 19.2853 158.226 19.528C158.226 19.752 158.3 19.864 158.45 19.864C158.73 19.864 159.075 19.6867 159.486 19.332C159.896 18.9773 160.307 18.5947 160.718 18.184C161.128 17.7547 161.502 17.3627 161.838 17.008C162.192 16.6533 162.435 16.476 162.566 16.476C162.827 16.476 162.958 16.7933 162.958 17.428C162.958 18.7347 162.295 20.004 160.97 21.236C159.663 22.468 158.263 23.084 156.77 23.084C155.426 23.084 154.754 21.8613 154.754 19.416C154.754 18.8 154.856 17.9507 155.062 16.868C155.267 15.7853 155.37 14.992 155.37 14.488Z" fill="#32C33B"/>
</svg>
